<svg xmlns="http://www.w3.org/2000/svg" xmlns:xlink="http://www.w3.org/1999/xlink" width="24" height="19" viewBox="0 0 24 19"><defs><clipPath id="a"><path d="M0,0H24V19H0Z" transform="translate(803 66)" fill="#fff" stroke="#707070" stroke-width="1"/></clipPath></defs><g transform="translate(-803 -66)" clip-path="url(#a)"><g transform="translate(805.5 66)"><path d="M9.5,0h0A9.494,9.494,0,0,0,1.809,15.068L.625,18.6,4.276,17.43A9.5,9.5,0,1,0,9.5,0Z" fill="#4caf50"/><path d="M15.03,13.415a2.681,2.681,0,0,1-1.864,1.341c-.5.106-1.145.19-3.327-.715a11.9,11.9,0,0,1-4.73-4.178A5.426,5.426,0,0,1,3.98,7a3.033,3.033,0,0,1,.971-2.312,1.38,1.38,0,0,1,.971-.341c.118,0,.223.006.318.011.279.012.419.029.6.469.229.552.787,1.915.854,2.056a.565.565,0,0,1,.04.514,1.642,1.642,0,0,1-.308.436c-.14.161-.273.285-.413.458-.128.151-.273.312-.112.591A8.432,8.432,0,0,0,8.448,10.8a6.985,6.985,0,0,0,2.228,1.374.6.6,0,0,0,.67-.106,11.478,11.478,0,0,0,.742-.983.53.53,0,0,1,.682-.207c.256.089,1.614.76,1.893.9s.463.207.531.324A2.366,2.366,0,0,1,15.03,13.415Z" fill="#fafafa"/></g></g></svg>